<svg id="图层_1" data-name="图层 1" xmlns="http://www.w3.org/2000/svg" xmlns:xlink="http://www.w3.org/1999/xlink" viewBox="0 0 184.88 247.17"><defs><style>.cls-1,.cls-2{fill:#fff;}.cls-1,.cls-5,.cls-6{fill-rule:evenodd;}.cls-3{opacity:0.8;}.cls-18,.cls-20,.cls-4,.cls-9{fill:none;}.cls-4,.cls-9{stroke:#6ff;}.cls-4,.cls-5{stroke-width:1.48px;}.cls-5{fill:#3d7fff;stroke:#11f6db;}.cls-5,.cls-6{fill-opacity:0.1;}.cls-6{fill:#11f6db;}.cls-7{mask:url(#mask);}.cls-8{opacity:0.3;}.cls-18,.cls-20,.cls-9{stroke-width:1.48px;}.cls-10{fill:url(#未命名的渐变_60);}.cls-11{mask:url(#mask-2);}.cls-12{fill:url(#未命名的渐变_61);}.cls-13{fill:url(#未命名的渐变_62);}.cls-14{mask:url(#mask-3);}.cls-15{fill:url(#未命名的渐变_63);}.cls-16{fill:#058aa7;}.cls-17{mask:url(#mask-4);}.cls-18{stroke:#4d90e1;}.cls-19{mask:url(#mask-5);}.cls-20{stroke:#02e7bc;}</style><mask id="mask" x="-83.39" y="-1.74" width="331.57" height="285.62" maskUnits="userSpaceOnUse"><g id="mask-96"><polygon id="path-95" class="cls-1" points="93.66 63.44 162.37 103.11 162.37 182.46 93.66 222.13 24.94 182.46 24.94 103.11 93.66 63.44"/></g></mask><linearGradient id="未命名的渐变_60" x1="-2532.42" y1="1995.7" x2="-2532.42" y2="1994.7" gradientTransform="matrix(88.99, 0, 0, -88.99, 225450.35, 177616.91)" gradientUnits="userSpaceOnUse"><stop offset="0" stop-color="#12fee0"/><stop offset="1" stop-color="#07889b"/></linearGradient><mask id="mask-2" x="48.81" y="6.24" width="102.51" height="108.64" maskUnits="userSpaceOnUse"><g id="mask-99"><path id="path-98" class="cls-1" d="M93.3,22.4A44.5,44.5,0,1,1,48.81,66.9,44.5,44.5,0,0,1,93.3,22.4Z"/></g></mask><linearGradient id="未命名的渐变_61" x1="-2520.55" y1="1992.71" x2="-2520.52" y2="1993.37" gradientTransform="matrix(57.51, 0, 0, -108.64, 145090.4, 216592.05)" xlink:href="#未命名的渐变_60"/><linearGradient id="未命名的渐变_62" x1="-2516.63" y1="2003.26" x2="-2516.63" y2="2003.94" gradientTransform="matrix(51.53, 0, 0, -51.53, 129774.74, 103307.69)" xlink:href="#未命名的渐变_60"/><mask id="mask-3" x="68.09" y="41.69" width="51.53" height="51.53" maskUnits="userSpaceOnUse"><g id="mask-103"><circle id="path-102" class="cls-2" cx="93.85" cy="67.45" r="25.76"/></g></mask><linearGradient id="未命名的渐变_63" x1="-2491.23" y1="2011.79" x2="-2491.78" y2="2010.64" gradientTransform="matrix(30.79, 0, 0, -36.66, 76813.6, 73816.46)" gradientUnits="userSpaceOnUse"><stop offset="0" stop-color="#12fee0"/><stop offset="1" stop-color="#026db2"/></linearGradient><mask id="mask-4" x="-247.79" y="69.18" width="291.53" height="220.44" maskUnits="userSpaceOnUse"/><mask id="mask-5" x="121.54" y="-1.74" width="313.03" height="253.51" maskUnits="userSpaceOnUse"/></defs><title>画板 6</title><g id="编组-52"><g id="编组-12备份-5"><g class="cls-3"><path class="cls-4" d="M18.76,216.2l9.43-9.43M159.32,75.64l7.75-7.75"/><path class="cls-4" d="M167.07,216.2l-9.43-9.43M26.51,75.64l-7.75-7.75"/></g><path id="多边形" class="cls-5" d="M92.92,48l81.46,47v94.07l-81.46,47-81.47-47V95Z"/><polygon class="cls-6" points="93.66 63.44 162.37 103.11 162.37 182.46 93.66 222.13 24.94 182.46 24.94 103.11 93.66 63.44"/><g class="cls-7"><g class="cls-8"><line id="路径-19" class="cls-9" x1="-64.48" y1="176.63" x2="186.26" y2="31.01"/><line class="cls-9" x1="-61.51" y1="181.77" x2="189.23" y2="36.15"/><line id="路径-19备份" class="cls-9" x1="-83.02" y1="144.52" x2="167.72" y2="-1.1"/><line class="cls-9" x1="-28.14" y1="239.57" x2="222.6" y2="93.95"/><line class="cls-9" x1="-54.09" y1="194.61" x2="196.64" y2="48.99"/><line id="路径-19备份-2" class="cls-9" x1="-75.6" y1="157.36" x2="175.14" y2="11.74"/><line class="cls-9" x1="-79.31" y1="150.94" x2="171.43" y2="5.32"/><line class="cls-9" x1="-71.89" y1="163.79" x2="178.84" y2="18.17"/><line class="cls-9" x1="-24.43" y1="245.99" x2="226.31" y2="100.37"/><line class="cls-9" x1="-46.68" y1="207.46" x2="204.06" y2="61.84"/><line id="路径-19备份-3" class="cls-9" x1="-68.18" y1="170.21" x2="182.55" y2="24.59"/><line class="cls-9" x1="-21.47" y1="251.13" x2="229.27" y2="105.51"/><line class="cls-9" x1="-39.26" y1="220.3" x2="211.47" y2="74.68"/><line class="cls-9" x1="-57.8" y1="188.19" x2="192.93" y2="42.57"/><line class="cls-9" x1="-50.39" y1="201.03" x2="200.35" y2="55.41"/><line class="cls-9" x1="-42.97" y1="213.88" x2="207.77" y2="68.26"/><line class="cls-9" x1="-35.56" y1="226.72" x2="215.18" y2="81.1"/><line class="cls-9" x1="-17.76" y1="257.55" x2="232.98" y2="111.93"/><line class="cls-9" x1="-31.85" y1="233.15" x2="218.89" y2="87.53"/><line class="cls-9" x1="-14.05" y1="263.97" x2="236.69" y2="118.35"/><line class="cls-9" x1="-10.34" y1="270.39" x2="240.4" y2="124.77"/><line class="cls-9" x1="-6.63" y1="276.82" x2="244.1" y2="131.2"/><line class="cls-9" x1="-2.93" y1="283.24" x2="247.81" y2="137.62"/></g></g></g><g id="分组-16"><g id="蒙版-2"><path class="cls-10" d="M93.3,22.4A44.5,44.5,0,1,1,48.81,66.9,44.5,44.5,0,0,1,93.3,22.4Z"/></g><g class="cls-11"><path class="cls-12" d="M93.8,6.24h57.52V114.88H93.8Z"/></g></g><circle class="cls-13" cx="93.85" cy="67.45" r="25.76"/><g class="cls-14"><g id="分组-19"><rect class="cls-15" x="79" y="56.35" width="30.79" height="36.66"/><rect class="cls-16" x="84.28" y="71.6" width="21.12" height="3.44"/><rect class="cls-16" x="84.28" y="63.39" width="21.12" height="3.44"/><rect class="cls-16" x="84.28" y="79.52" width="21.12" height="3.44"/></g></g></g><g id="编组-51"><g id="编组-12备份-4"><g class="cls-17"><g class="cls-8"><line class="cls-18" x1="-232.58" y1="245.31" x2="18.16" y2="99.69"/><line class="cls-18" x1="-228.87" y1="251.73" x2="21.86" y2="106.11"/><line class="cls-18" x1="-225.91" y1="256.87" x2="24.83" y2="111.25"/><line class="cls-18" x1="-243.71" y1="226.04" x2="7.03" y2="80.42"/><line class="cls-18" x1="-247.41" y1="219.62" x2="3.32" y2="74"/><line class="cls-18" x1="-240" y1="232.47" x2="10.74" y2="86.85"/><line class="cls-18" x1="-222.2" y1="263.29" x2="28.54" y2="117.67"/><line class="cls-18" x1="-236.29" y1="238.89" x2="14.45" y2="93.27"/><line class="cls-18" x1="-218.49" y1="269.71" x2="32.25" y2="124.09"/><line class="cls-18" x1="-214.78" y1="276.14" x2="35.95" y2="130.52"/><line class="cls-18" x1="-211.08" y1="282.56" x2="39.66" y2="136.94"/><line class="cls-18" x1="-207.37" y1="288.98" x2="43.37" y2="143.36"/></g></g></g></g><g id="编组-57"><g class="cls-19"><g class="cls-8"><line class="cls-20" x1="140.46" y1="176.63" x2="391.19" y2="31.01"/><line class="cls-20" x1="143.42" y1="181.77" x2="394.16" y2="36.15"/><line class="cls-20" x1="121.92" y1="144.52" x2="372.65" y2="-1.1"/><line class="cls-20" x1="176.79" y1="239.57" x2="427.53" y2="93.95"/><line class="cls-20" x1="150.84" y1="194.61" x2="401.58" y2="48.99"/><line class="cls-20" x1="129.33" y1="157.36" x2="380.07" y2="11.74"/><line class="cls-20" x1="125.62" y1="150.94" x2="376.36" y2="5.32"/><line class="cls-20" x1="133.04" y1="163.79" x2="383.78" y2="18.17"/><line class="cls-20" x1="180.5" y1="245.99" x2="431.24" y2="100.37"/><line class="cls-20" x1="158.25" y1="207.46" x2="408.99" y2="61.84"/><line class="cls-20" x1="136.75" y1="170.21" x2="387.49" y2="24.59"/><line class="cls-20" x1="183.47" y1="251.13" x2="434.2" y2="105.51"/><line class="cls-20" x1="165.67" y1="220.3" x2="416.41" y2="74.68"/><line class="cls-20" x1="147.13" y1="188.19" x2="397.87" y2="42.57"/><line class="cls-20" x1="154.55" y1="201.03" x2="405.28" y2="55.41"/><line class="cls-20" x1="161.96" y1="213.88" x2="412.7" y2="68.26"/><line class="cls-20" x1="169.38" y1="226.72" x2="420.11" y2="81.1"/><line class="cls-20" x1="173.08" y1="233.15" x2="423.82" y2="87.53"/></g></g></g></svg>